<svg xmlns="http://www.w3.org/2000/svg" viewBox="0 0 475.93 101.79"><defs><style>.cls-1{fill:#403260;}.cls-2{fill:#69c783;}.cls-3{fill:#c2f18d;}</style></defs><title>Asset 12</title><g id="Layer_2" data-name="Layer 2"><g id="Layer_1-2" data-name="Layer 1"><path class="cls-1" d="M161.15,63.24h-.1c-2.41,4-5.71,5.46-9.89,5.46a16,16,0,0,1-12.34-5.11,19.3,19.3,0,0,1-4.58-13.09c0-5.85,2.07-11,5.76-14.36a16.11,16.11,0,0,1,11.31-4c8.86,0,13.92,4.87,15.05,11.76h-7c-.79-3.39-3.4-5.85-7.92-5.85-6.64,0-9.94,5.51-9.94,12.49,0,7.18,3.79,12.45,9.84,12.45,5.46,0,9-4.09,9-8v-.2H152V49.27h14.81V68H161.4Z"/><path class="cls-1" d="M177.63,46.76h.15c1.53-2.85,3.25-4.33,6.2-4.33a4.26,4.26,0,0,1,1.57.2v5.85h-.14c-4.38-.44-7.53,1.87-7.53,7.19V68h-6.69V42.73h6.44Z"/><path class="cls-1" d="M186.49,55.32c0-7.48,5.07-13.28,12.45-13.28,8.11,0,12.44,6.2,12.44,15.2h-18.3c.49,3.89,2.66,6.3,6.45,6.3a4.72,4.72,0,0,0,4.87-3.1H211c-.94,4.47-4.92,8.26-11.41,8.26C191.21,68.7,186.49,62.85,186.49,55.32Zm6.69-2.7H204.4c-.2-3.2-2.31-5.42-5.36-5.42C195.49,47.2,193.77,49.32,193.18,52.62Z"/><path class="cls-1" d="M213.25,55.32c0-7.48,5.07-13.28,12.45-13.28,8.12,0,12.45,6.2,12.45,15.2h-18.3c.49,3.89,2.65,6.3,6.44,6.3a4.71,4.71,0,0,0,4.87-3.1h6.59c-.93,4.47-4.92,8.26-11.41,8.26C218,68.7,213.25,62.85,213.25,55.32Zm6.7-2.7h11.21c-.2-3.2-2.31-5.42-5.36-5.42C222.26,47.2,220.54,49.32,220,52.62Z"/><path class="cls-1" d="M247.79,46.17h.15A8.2,8.2,0,0,1,255.42,42c5.21,0,8.7,3.94,8.7,9.45V68h-6.69V52.47c0-2.71-1.57-4.63-4.37-4.63-3,0-5.12,2.37-5.12,5.81V68h-6.69V42.73h6.54Z"/><path class="cls-1" d="M266.29,42.73h3.49V34.86h6.55v7.87h4.33v4.43h-4.33V60.54a2.21,2.21,0,0,0,2.51,2.51c.83,0,2,0,2,0v4.92s-1.52.09-4.18.09c-3.24,0-6.84-1.27-6.84-6.05V47.16h-3.49Z"/><path class="cls-1" d="M282.63,55.37C282.63,47.84,288,42,295.81,42S309,47.84,309,55.37,303.63,68.7,295.81,68.7,282.63,62.9,282.63,55.37Zm19.58,0c0-4.92-2.32-8.26-6.4-8.26s-6.4,3.34-6.4,8.26,2.27,8.22,6.4,8.22S302.21,60.29,302.21,55.37Z"/><path class="cls-1" d="M309.39,42.73H316l3.05,11.71c.54,2.06,1.13,4.72,1.13,4.72h.1s.54-2.71,1.08-4.77l3.15-11.66h5.71l3.29,11.66c.55,2.11,1.19,4.77,1.19,4.77h.09s.59-2.66,1.14-4.72l3.19-11.71h6.5L338.12,68H332l-3.35-12.4c-.54-2-1.13-4.38-1.13-4.38h-.1s-.64,2.36-1.18,4.38L322.82,68h-6.05Z"/><path class="cls-1" d="M354.55,46.17h.15A8.21,8.21,0,0,1,362.18,42c5.21,0,8.71,3.94,8.71,9.45V68H364.2V52.47c0-2.71-1.58-4.63-4.38-4.63s-5.12,2.37-5.12,5.81V68H348V42.73h6.54Z"/><path class="cls-1" d="M381.32,32.79h3.3V64.91h18.74V68h-22Z"/><path class="cls-1" d="M405.43,61.47c0-6,4.72-7.28,10.48-8,5-.59,6.83-.88,6.83-3.44v-.49c0-3.45-2.16-5.12-6.1-5.12-4.52,0-6.88,1.87-7.13,5.66h-3c.35-4.92,3.59-8.12,10.13-8.12,5.56,0,9,2.31,9,7.87V63.69c0,1.52.59,2.16,1.67,2.21a5.4,5.4,0,0,0,1.13-.2h.15v2.22a5,5,0,0,1-2.07.39c-2.21,0-3.59-1.13-3.74-3.59v-.54h-.14a10.28,10.28,0,0,1-8.91,4.38C409,68.56,405.43,66.19,405.43,61.47Zm17.36-2.7V54.19a20.86,20.86,0,0,1-6.59,1.67c-4.28.59-7.57,1.23-7.57,5.61,0,3.54,2.65,4.63,5.65,4.63C419.84,66.1,422.79,62.26,422.79,58.77Z"/><path class="cls-1" d="M434.55,64.13h-.09V68h-3V32.79h3V46.91h.09A9.58,9.58,0,0,1,443.16,42c6.1,0,10.48,4.87,10.48,13.33,0,7.82-4,13.33-10.67,13.33A9.23,9.23,0,0,1,434.55,64.13Zm16-8.76c0-6.34-2.7-10.82-7.77-10.82-5.61,0-8.56,4.77-8.56,10.82,0,6.35,3,10.73,8.61,10.73C448,66.1,450.54,61.32,450.54,55.37Z"/><path class="cls-1" d="M455.86,60H459c.44,4.28,3.39,6,7.47,6,4.24,0,6.45-2,6.45-4.92s-1.57-3.74-6.79-4.92-9.3-2.41-9.3-7.33c0-4.23,3.64-6.89,8.86-6.89,6.05,0,8.85,3,9.44,7.53h-3c-.34-3.3-2.6-5-6.39-5s-5.81,1.87-5.81,4.23c0,2.9,2.41,3.59,7.28,4.72,5.12,1.08,8.81,2.36,8.81,7.63,0,4.52-3.64,7.57-9.54,7.57C459.6,68.65,456.15,65,455.86,60Z"/><path class="cls-2" d="M58.08,24.29,77.57,35.57a4.71,4.71,0,0,1,1.63,1.6c-.88-5.38-2.33-14-2.63-16.07a23.33,23.33,0,0,1-.23-3.57h-.61c-7.68.3-15.59,3.78-19.8,5.91l-.37.2h0A4.79,4.79,0,0,1,58.08,24.29Z"/><path class="cls-2" d="M33.81,35.52,53.32,24.29a4.77,4.77,0,0,1,2.22-.63h0c-5.09-1.94-13.28-5-15.19-5.76a24.51,24.51,0,0,1-3.25-1.62l-.32.58C33.22,23.66,32.29,32.25,32,37c0,.14,0,.27,0,.4A4.82,4.82,0,0,1,33.81,35.52Z"/><path class="cls-2" d="M79.91,62.21a4.73,4.73,0,0,1-.53,2.17c4.22-3.45,10.94-9,12.55-10.27a22.78,22.78,0,0,1,3-2c-.1-.17-.2-.35-.31-.52-4.1-6.5-11.07-11.61-15-14.19-.12-.08-.24-.16-.37-.23a4.69,4.69,0,0,1,.73,2.52Z"/><path class="cls-2" d="M77.53,66.33,58,77.57a4.73,4.73,0,0,1-2.12.62c5.1,1.93,13.22,5,15.12,5.71a24.54,24.54,0,0,1,3.22,1.6l.29-.53c3.58-6.8,4.52-15.39,4.79-20.11,0-.12,0-.24,0-.37A4.66,4.66,0,0,1,77.53,66.33Z"/><path class="cls-2" d="M53.26,77.56,33.77,66.28a4.69,4.69,0,0,1-1.62-1.57c.87,5.39,2.31,13.94,2.6,16A23.58,23.58,0,0,1,35,84.26h.6c7.69-.3,15.6-3.77,19.81-5.9l.29-.15A4.72,4.72,0,0,1,53.26,77.56Z"/><path class="cls-2" d="M31.42,39.64A4.71,4.71,0,0,1,32,37.39c-4.22,3.45-11,9-12.57,10.27a23.77,23.77,0,0,1-3,2l.31.52c4.1,6.5,11.06,11.62,15,14.21l.28.17a4.71,4.71,0,0,1-.64-2.4Z"/><path class="cls-3" d="M55.56,23.65l.37-.2c4.21-2.13,12.12-5.61,19.8-5.91h.61A23.15,23.15,0,0,1,82.2,1.93a43.68,43.68,0,0,0-28.47,1C49,4.76,41,9.57,37.12,16.27a24.51,24.51,0,0,0,3.25,1.62C42.28,18.65,50.47,21.71,55.56,23.65Z"/><path class="cls-3" d="M111.35,49.4a43.67,43.67,0,0,0-15-24.17c-4-3.18-12.23-7.76-20-7.7a23.33,23.33,0,0,0,.23,3.57c.3,2,1.75,10.7,2.63,16.07l.38.24c4,2.58,10.92,7.69,15,14.19.11.17.21.35.31.52A23.16,23.16,0,0,1,111.35,49.4Z"/><path class="cls-3" d="M79.32,64.42c0,.15,0,.3,0,.44C79,69.58,78.1,78.17,74.52,85l-.29.53A23.12,23.12,0,0,1,84.79,98.38,43.68,43.68,0,0,0,98.21,73.26c.76-5.06.62-14.47-3.3-21.14a22.78,22.78,0,0,0-3,2C90.31,55.39,83.54,61,79.32,64.42Z"/><path class="cls-3" d="M55.78,78.14a3.72,3.72,0,0,1-.39.21c-4.21,2.13-12.12,5.6-19.81,5.9H35A23.16,23.16,0,0,1,29.1,99.85a43.74,43.74,0,0,0,28.47-.93c4.75-1.87,12.83-6.7,16.66-13.42A24.54,24.54,0,0,0,71,83.9C69.1,83.14,60.88,80.07,55.78,78.14Z"/><path class="cls-3" d="M32.13,64.61l-.37-.23c-4-2.59-10.91-7.71-15-14.21l-.31-.52A23.19,23.19,0,0,1,0,52.35,43.63,43.63,0,0,0,15,76.54c4,3.18,12.22,7.77,19.95,7.72a23.58,23.58,0,0,0-.23-3.58C34.46,78.64,33,70,32.13,64.61Z"/><path class="cls-3" d="M32,37.38c0-.14,0-.28,0-.42.26-4.71,1.19-13.3,4.77-20.11l.32-.58A23.12,23.12,0,0,1,26.6,3.4,43.66,43.66,0,0,0,13.16,28.51c-.76,5.05-.63,14.46,3.28,21.14a23.77,23.77,0,0,0,3-2C21,46.39,27.79,40.83,32,37.38Z"/></g></g></svg>